<svg xmlns="http://www.w3.org/2000/svg" width="1536" height="1024" viewBox="0 0 1536 1024" role="img" aria-label="Kuchnia przed i po sprzątaniu">
  <rect width="1536" height="1024" fill="#f5f5f5"/>
  <rect x="18" y="18" width="744" height="988" rx="40" fill="#cfcac4"/>
  <rect x="774" y="18" width="744" height="988" rx="40" fill="#dfd9d1"/>
  <rect x="58" y="420" width="664" height="480" fill="#6f513b"/>
  <rect x="814" y="420" width="664" height="480" fill="#805b3d"/>
  <rect x="58" y="300" width="664" height="150" fill="#efefef"/>
  <rect x="814" y="300" width="664" height="150" fill="#f7f7f7"/>
  <rect x="256" y="500" width="290" height="390" fill="#735239"/>
  <rect x="1012" y="500" width="290" height="390" fill="#8a6342"/>
  <rect x="256" y="500" width="290" height="38" fill="#d9d1c4"/>
  <rect x="1012" y="500" width="290" height="38" fill="#ece0cf"/>
  <circle cx="362" cy="690" r="84" fill="#171717" opacity="0.9"/>
  <rect x="146" y="865" width="120" height="84" fill="#7f6649"/>
  <rect x="1028" y="630" width="60" height="42" fill="#d6c09f"/>
  <rect x="1120" y="620" width="56" height="34" fill="#f2efe9"/>
  <circle cx="1138" cy="744" r="16" fill="#6f8a59"/>
  <text x="390" y="84" text-anchor="middle" font-family="Arial, sans-serif" font-size="46" font-weight="700" fill="#ffffff">PRZED</text>
  <text x="1146" y="84" text-anchor="middle" font-family="Arial, sans-serif" font-size="46" font-weight="700" fill="#ffffff">PO</text>
</svg>
